
<svg xmlns="http://www.w3.org/2000/svg" version="1.1" xmlns:xlink="http://www.w3.org/1999/xlink" preserveAspectRatio="none" x="0px" y="0px" width="1920px" height="1080px" viewBox="0 0 1920 1080">
<defs>
<g id="Puppy_Scared_Run__assets___Duplicate_Items_Folder_dog_leg2_0_Layer0_0_FILL">
<path fill="#000000" stroke="none" d="
M 0.95 20.55
Q 0.5 20.65 0.25 21.25
L 0.05 21.65
Q -0.55 24.3 -0.55 24.65 -0.55 24.75 -0.55 24.9 -0.5 25.9 0 30.15 0.55 35.05 0.55 35.6 0.55 36.05 0.85 37.45 1.1 38.85 1.35 39.9 1.55 40.95 2.35 41 3.1 41 5.6 40.35 7.9 40.6 7.85 43.55
L 7.3 45.85 5.4 46.3
Q 0.65 47.35 -2.1 45.75 -3.6984375 43.601953125 -3.8 19.5 -3.825390625 19.534375 -3.85 19.55
L -3.8 19.45
Q -4.4 20.05 -4.8 21.5 -5.2 23.05 -5.4 25.45 -5.6 27.85 -5.55 29.45 -5.55 31.05 -5.55 35.2 -5.55 39.35 -5.5 43.55 -5.45 47.7 -3.9 48.55 -2.35 49.4 5.95 49.4 8.6 49.4 10.05 47.95 11.45 46.45 10.85 43.25 10.25 40 9.1 38.3 7.95 36.6 3.4 38.35 2.05 32.15 1.7 28.75 1.35 25.35 0.95 20.55 Z"/>

<path fill="#FFCC66" stroke="none" d="
M 1.05 20.3
Q 1.05 19.75 0.85 19.35 0.25 18.25 -1.85 18.4 -3.158984375 18.5146484375 -3.8 19.5 -3.6984375 43.601953125 -2.1 45.75 0.65 47.35 5.4 46.3
L 7.3 45.85 7.85 43.55
Q 7.9 40.6 5.6 40.35 3.1 41 2.35 41 1.55 40.95 1.35 39.9 1.1 38.85 0.85 37.45 0.55 36.05 0.55 35.6 0.55 35.05 0 30.15 -0.5 25.9 -0.55 24.9 -0.55 24.75 -0.55 24.65 -0.55 24.3 0.05 21.65
L 0.25 21.25
Q 0.5 20.65 0.95 20.55 1 20.4 1.05 20.3 Z"/>
</g>

<g id="Puppy_Scared_Run__assets___Duplicate_Items_Folder_dog_tail_3_Layer0_0_FILL">
<path fill="#000000" stroke="none" d="
M 1.5 -14.65
Q 1.5 -12.4 4.6 -6.85 8.6 0.5 13.65 0.5 14.3 0.5 14.75 0 15.15 -0.45 15.15 -1.05 9.85 -5.25 6.3 -9.45 5.15 -10.65 3.9 -14.1 2.9 -16.85 1.8 -17 1.5 -15.4 1.5 -14.65 Z"/>
</g>

<g id="Puppy_Scared_Run__assets___Duplicate_Items_Folder_dog_body1_0_Layer0_0_FILL">
<path fill="#000000" stroke="none" d="
M 17.3 -15.55
Q 13.9 -35.25 5.2 -24.9 -0.7 -17.85 -9.15 -4 -19.55 13.1 -19.55 19.4 -19.55 21.9 -17.35 24.15 -13.15 28.45 -2.55 28.45 14.55 28.45 18.4 21.3 19.7 18.95 19.55 15.55 19.15 12.2 19.15 11.2 19.15 -5 17.3 -15.55
M 6.4 -21.2
Q 10.95 -32.35 13.55 -13.5 15.35 -0.6 15.35 11.5 15.35 12.05 15.7 14.35 15.85 16.75 14.8 18.5 11.6 23.9 -2.55 23.9 -8.75 23.9 -12.45 21.65 -15.25 19.95 -15.25 18.35 -15.25 13.95 -4.95 -3.35 3.55 -17.6 6.4 -21.2 Z"/>

<path fill="#FFCC66" stroke="none" d="
M 13.55 -13.5
Q 10.95 -32.35 6.4 -21.2 3.55 -17.6 -4.95 -3.35 -15.25 13.95 -15.25 18.35 -15.25 19.95 -12.45 21.65 -8.75 23.9 -2.55 23.9 11.6 23.9 14.8 18.5 15.85 16.75 15.7 14.35 15.35 12.05 15.35 11.5 15.35 -0.6 13.55 -13.5 Z"/>
</g>

<g id="Puppy_Scared_Run__assets___Duplicate_Items_Folder_dog_leg1_0_Layer0_0_FILL">
<path fill="#000000" stroke="none" d="
M 1.55 -13.35
Q 4.0306640625 -13.237890625 5.65 -12.6 6.65 -12.2 7.4 -11.6 9.2 -10 8.9 -8.65 8.6 -7.35 4.95 -1.65 1.25 4 1.25 4.45 1.25 5.2 2.85 6.5 8 6.8 9.85 7.45 11.5 8.1 11.5 9.45 11.5 10.15 11.25 10.7 10.95 11.4 10.95 11.55
L 8.8 11.55
Q 0.7 10.7 -3.4 9.6 -7.15 8.4 -10.35 7.7 -6.95 2.9 -5.6 0.55 -4.7 -1.05 -4.7 -1.55 -4.75 -1.95 -5 -2.4 -5.35 -3.05 -6 -3.2 -6.25 -3.25 -6.5 -3.25 -7 -3.25 -10.9 2.15 -14.9 7.6 -14.9 8.5 -14.9 9.9 -8.8 12.25 -0.9 15.25 10.15 15.25 13.4 15.25 14.45 12.7 14.95 11.5 14.95 9.4 14.95 6.8 13.75 5.6 11.85 3.7 6 3.05
L 6.1 2.85
Q 8.65 -0.75 9.8 -2.55 11.85 -5.75 11.85 -7.75 11.85 -10.95 10.1 -12.95 8.35 -14.9 5.4 -14.55 3.743359375 -14.3607421875 1.75 -13.45 1.662109375 -13.4033203125 1.55 -13.35 Z"/>

<path fill="#FFCC66" stroke="none" d="
M 5.65 -12.6
Q 4.0306640625 -13.237890625 1.55 -13.35 0.6138671875 -12.53828125 -0.35 -11.4 -4.9 -6.05 -6 -3.2 -5.35 -3.05 -5 -2.4 -4.75 -1.95 -4.7 -1.55 -4.7 -1.05 -5.6 0.55 -6.95 2.9 -10.35 7.7 -7.15 8.4 -3.4 9.6 0.7 10.7 8.8 11.55
L 10.95 11.55
Q 10.95 11.4 11.25 10.7 11.5 10.15 11.5 9.45 11.5 8.1 9.85 7.45 8 6.8 2.85 6.5 1.25 5.2 1.25 4.45 1.25 4 4.95 -1.65 8.6 -7.35 8.9 -8.65 9.2 -10 7.4 -11.6 6.65 -12.2 5.65 -12.6 Z"/>
</g>

<g id="Puppy_Scared_Run__assets___Duplicate_Items_Folder_dog_ear2_0_Layer0_0_FILL">
<path fill="#FFCC66" stroke="none" d="
M 9.15 -3.6
Q 6.2 -8.75 3.4 -9.2 0.55 -9.7 -2.1 -9.8 -4.75 -9.9 -7.55 -7.85 -10.35 -5.85 -10.65 -5.6 -12.05 -4.55 -14.1 -2.75 -14.1 -2.6 -14 -1.4 -13.45 -0.2 -11.6 -0.2 -11.35 -0.2 -11.1 -0.2 -10.75 -1.8 -9.35 -2.7 -7.95 -3.6 -6.15 -4.8 -4.35 -6 -1.7 -6.2 0.95 -6.45 0.95 -4.7 0.95 -3.95 0.3 -3.7 -0.35 -3.4 -0.35 -2.75 -0.35 -2.7 0.4 -0.75 1.1 1.15 3.5 4.85 5.9 8.55 8.1 8.55 10.25 8.55 11.25 6.55 12.05 4.95 12.05 4.2 12.05 1.5 9.15 -3.6 Z"/>

<path fill="#000000" stroke="none" d="
M 13.7 -2.5
Q 11.25 -7.6 7.85 -9.95 4.4 -12.3 -2.05 -12.6 -8.55 -12.9 -15.75 -4.05
L -15.75 -2.25 -14.65 -2.35
Q -14.35 -2.55 -14.1 -2.75 -12.05 -4.55 -10.65 -5.6 -10.35 -5.85 -7.55 -7.85 -4.75 -9.9 -2.1 -9.8 0.55 -9.7 3.4 -9.2 6.2 -8.75 9.15 -3.6 12.05 1.5 12.05 4.2 12.05 4.95 11.25 6.55 10.25 8.55 8.1 8.55 5.9 8.55 3.5 4.85 1.1 1.15 0.4 -0.75 -0.35 -2.7 -0.35 -2.75 -0.35 -3.4 0.3 -3.7 0.95 -3.95 0.95 -4.7 0.95 -6.45 -1.7 -6.2 -4.35 -6 -6.15 -4.8 -7.95 -3.6 -9.35 -2.7 -10.75 -1.8 -11.1 -0.2 -11.2 0 -11.2 0.3
L -10.05 1.65
Q -9.45 1.6 -9 1.5 -7.6 1.2 -6.95 0.6 -5 -1.15 -4.6 -1.4
L -4.3 -1.1
Q -4.05 0.15 -3.4 1.5 -2.15 4.15 0.45 7.25 4.9 12.6 8.6 12.6 12.9 12.6 14.7 9.25 15.8 7.15 15.8 4.35 15.8 1.8 13.7 -2.5 Z"/>
</g>

<g id="Puppy_Scared_Run__assets___Duplicate_Items_Folder_dog_head_0_Layer0_0_FILL">
<path fill="#000000" stroke="none" d="
M 12.7 -8.05
Q 12.55 -8.15 12.45 -8.2 12.25 -8.9 11.9 -9.5 10.95 -11.1 9.1 -11.75 8.25 -12.95 7.05 -14.25 3.1 -18.55 2.6 -19.35 0.85 -22.7 -2.75 -24.15 -3.3 -24.4 -3.85 -24.5 -4.3 -24.7 -5 -24.7 -5.85 -24.8 -6.55 -24.6 -6.65 -24.6 -6.75 -24.55 -10.25 -24.85 -13.4 -22.9 -15.6 -21.6 -16.35 -20.25 -19.85 -17.75 -20.35 -14.95 -21.2 -9.8 -21 0.9 -21 1 -20 9.55 -18.9 16.05 -17.3 17.6 -16.75 18.9 -15.65 20.35 -12.3 24.75 -5.45 24.75 10.65 24.75 17.2 19.15 21.1 15.75 21.1 10.85 21.1 8.85 20.1 5.65 18.8 2.05 18.3 0.3 16.2 -5.8 12.7 -8.05
M 2.9 -14.8
Q 4.2 -13.4 5.25 -12.25 -1.1 -12 -4.6 -6.4 -7.1 -2.4 -7.1 0.9 -7.1 1 -6.9 4.25 -6.15 7.45 -3 7.45 7.95 7.45 11.35 1.2 12.05 -0.05 12.4 -1.95
L 13.35 -0.65
Q 17.4 5.95 17.4 11.05 17.4 13.95 13.85 16.55 7.95 20.95 -5.45 20.95 -11 20.95 -13.1 18 -13.9 16.15 -14.65 14.95 -15.05 13.6 -15.45 12.25 -16.5 8.45 -16.55 6.25 -16.55 4.8 -17.15 1.25 -17.75 -2.35 -17.75 -3.75 -17.85 -6.2 -17.85 -8.3 -17.8 -12.35 -17.1 -14.15 -15.8 -17.3 -14 -19.3 -12.462890625 -20.5287109375 -10.8 -21.25 -9.1404296875 -21.966015625 -8.65 -21.9 -8.1033203125 -21.7947265625 -7.8 -21.8 -3.4 -21.8 2.9 -14.8
M -6.95 -9.85
Q -6.5 -10.75 -6.5 -11.8 -6.5 -14.25 -9 -15.05 -11.4984375 -15.8494140625 -11.5 -12.7 -11.4978515625 -12.9330078125 -11.25 -10.95 -10.5 -8.75 -8.45 -8.75 -7.5 -8.75 -6.95 -9.85
M -5.95 -16.25
Q -5.95 -15.3 -5.2 -14.25 -4.05 -12.75 -1.95 -12.75 -1.25 -12.75 -0.9 -13 -0.7 -13.1 -0.55 -13.25
L -0.35 -14.6
Q -0.85 -17.55 -3.4 -18.1 -5.95 -18.6 -5.95 -16.25 Z"/>

<path fill="#FFCC66" stroke="none" d="
M 5.25 -12.25
Q 4.2 -13.4 2.9 -14.8 -3.4 -21.8 -7.8 -21.8 -8.1033203125 -21.7947265625 -8.65 -21.9 -9.1404296875 -21.966015625 -10.8 -21.25 -12.462890625 -20.5287109375 -14 -19.3 -15.8 -17.3 -17.1 -14.15 -17.8 -12.35 -17.85 -8.3 -17.85 -6.2 -17.75 -3.75 -17.75 -2.35 -17.15 1.25 -16.55 4.8 -16.55 6.25 -16.5 8.45 -15.45 12.25 -15.05 13.6 -14.65 14.95 -13.9 16.15 -13.1 18 -11 20.95 -5.45 20.95 7.95 20.95 13.85 16.55 17.4 13.95 17.4 11.05 17.4 5.95 13.35 -0.65
L 12.4 -1.95
Q 12.05 -0.05 11.35 1.2 7.95 7.45 -3 7.45 -6.15 7.45 -6.9 4.25 -7.1 1 -7.1 0.9 -7.1 -2.4 -4.6 -6.4 -1.1 -12 5.25 -12.25
M -5.2 -14.25
Q -5.95 -15.3 -5.95 -16.25 -5.95 -18.6 -3.4 -18.1 -0.85 -17.55 -0.35 -14.6
L -0.55 -13.25
Q -0.7 -13.1 -0.9 -13 -1.25 -12.75 -1.95 -12.75 -4.05 -12.75 -5.2 -14.25
M -6.5 -11.8
Q -6.5 -10.75 -6.95 -9.85 -7.5 -8.75 -8.45 -8.75 -10.5 -8.75 -11.25 -10.95 -11.4978515625 -12.9330078125 -11.5 -12.7 -11.4984375 -15.8494140625 -9 -15.05 -6.5 -14.25 -6.5 -11.8 Z"/>
</g>

<g id="Puppy_Scared_Run__assets___Duplicate_Items_Folder_dog_ear1_0_Layer0_0_FILL">
<path fill="#000000" stroke="none" d="
M 12 -12.7
L 12.9 -12.85
Q 12.95 -12.9 13.15 -13.15
L 13.15 -13.2
Q 13.2 -13.25 13.2 -13.95 13.2 -14.1 13.15 -14.2 12.9 -14.85 11.75 -15.7 11.65 -15.75 11.6 -15.8 9.8 -17.05 7.45 -17.7 1 -19.55 -3.8 -15.55 -5.65 -14.05 -7.1 -11.15 -8.4 -8.6 -8.75 -6.55 -9.15 -4.5 -11.4 2.8 -13.2 8.45 -13.2 11.6 -13.2 13.75 -12.1 15.2 -9.65 18.35 -2.75 18.35 5.3 18.35 6.75 9.2 7.25 6.05 7.15 0.4 7.05 -8 7.05 -8.8 7.3 -8.75 8.3 -8.05 9.2 -7.4 10.1 -7.4 11.2 -7.4 11.35 -7.7 11.6 -7.6 11.6 -8.7 11.6 -8.85 11.5 -9.05 11.05 -9.75 9.5 -10.85 9.1 -11.1 8.75 -11.35 6.6 -12.6 4.4 -12.6 2.25 -12.6 2.25 -10.9 2.25 -10.6 3.15 -8.6 4 -6.6 4 -5.5 4 3.5 3.35 6.35 1.5 14.45 -5.3 14.45 -7.5 14.45 -8.65 13.15 -9.5 12.2 -9.7 10.45 -9.9 8.7 -7.2 -2.25 -4.5 -13.2 0.2 -15.4
L 4.35 -15.4
Q 7 -14.6 8.7 -13.85 9.1 -13.7 9.5 -13.5 10.7 -13.05 12 -12.7 Z"/>

<path fill="#FFCC66" stroke="none" d="
M 12.9 -12.85
L 12 -12.7
Q 10.7 -13.05 9.5 -13.5 9.1 -13.7 8.7 -13.85 7 -14.6 4.35 -15.4
L 0.2 -15.4
Q -4.5 -13.2 -7.2 -2.25 -9.9 8.7 -9.7 10.45 -9.5 12.2 -8.65 13.15 -7.5 14.45 -5.3 14.45 1.5 14.45 3.35 6.35 4 3.5 4 -5.5 4 -6.6 3.15 -8.6 2.25 -10.6 2.25 -10.9 2.25 -12.6 4.4 -12.6 6.6 -12.6 8.75 -11.35 9.1 -11.1 9.5 -10.85 11.05 -9.75 11.5 -9.05 12.25 -9.6 12.7 -11.05 13 -12.05 13.15 -13.15 12.95 -12.9 12.9 -12.85 Z"/>
</g>
</defs>

<g transform="matrix( 2.554931640625, 0, 0, 2.554931640625, 5.1,-189.9) ">
<g transform="matrix( 4.5878143310546875, 0, 1.1199188232421875, 4.588134765625, 430.75,394.8) ">
<g transform="matrix( 1, 0, 0, 1, -2.75,-33.9) ">
<use xlink:href="#Puppy_Scared_Run__assets___Duplicate_Items_Folder_dog_leg2_0_Layer0_0_FILL"/>
</g>
</g>

<g transform="matrix( 4.5878143310546875, 0, 0, 4.588134765625, 216,433.35) ">
<g transform="matrix( 1, 0, 0, 1, 0,0) ">
<use xlink:href="#Puppy_Scared_Run__assets___Duplicate_Items_Folder_dog_tail_3_Layer0_0_FILL"/>
</g>
</g>

<g transform="matrix( 4.5592498779296875, -0.53533935546875, 0.1743011474609375, 4.59625244140625, 336.7,327.15) ">
<g transform="matrix( 1, 0, 0, 1, 0,0) ">
<use xlink:href="#Puppy_Scared_Run__assets___Duplicate_Items_Folder_dog_body1_0_Layer0_0_FILL"/>
</g>
</g>

<g transform="matrix( 4.5878143310546875, 0, 0.434295654296875, 4.588134765625, 409.15,411.8) ">
<g transform="matrix( 1, 0, 0, 1, -2.75,-33.9) ">
<use xlink:href="#Puppy_Scared_Run__assets___Duplicate_Items_Folder_dog_leg2_0_Layer0_0_FILL"/>
</g>
</g>

<g transform="matrix( 4.5878143310546875, 0, 0.7003173828125, 4.588134765625, 303.9,413.4) ">
<g transform="matrix( 1, 0, 0, 1, 0,0) ">
<use xlink:href="#Puppy_Scared_Run__assets___Duplicate_Items_Folder_dog_leg1_0_Layer0_0_FILL"/>
</g>
</g>

<g transform="matrix( 3.66680908203125, -2.66943359375, 2.721771240234375, 3.7578125, 460.8,94.3) ">
<g transform="matrix( 1, 0, 0, 1, 0,0) ">
<use xlink:href="#Puppy_Scared_Run__assets___Duplicate_Items_Folder_dog_ear2_0_Layer0_0_FILL"/>
</g>
</g>

<g transform="matrix( 4.5665283203125, -0.1160736083984375, 0.21441650390625, 4.6038055419921875, 438.55,205.8) ">
<g transform="matrix( 1, 0, 0, 1, 0,0) ">
<use xlink:href="#Puppy_Scared_Run__assets___Duplicate_Items_Folder_dog_head_0_Layer0_0_FILL"/>
</g>
</g>

<g transform="matrix( 3.978485107421875, 2.3760986328125, -2.2850799560546875, 3.92584228515625, 293.35,151.65) ">
<g transform="matrix( 1, 0, 0, 1, 0,0) ">
<use xlink:href="#Puppy_Scared_Run__assets___Duplicate_Items_Folder_dog_ear1_0_Layer0_0_FILL"/>
</g>
</g>
</g>
</svg>
