
<svg xmlns="http://www.w3.org/2000/svg" version="1.1" xmlns:xlink="http://www.w3.org/1999/xlink" preserveAspectRatio="none" x="0px" y="0px" width="1920px" height="1080px" viewBox="0 0 1920 1080">
<defs>
<g id="Puppy_Scared_Run__assets___Duplicate_Items_Folder_dog_legrun_3_Layer0_0_FILL">
<path fill="#FFCC66" stroke="none" d="
M -15.1 -8.05
Q -15.1291015625 -7.7806640625 -15.15 -7.5 -15.1208984375 -7.059375 -15.25 -6.5 -15.3169921875 -6.1876953125 -15.4 -5.9 -15.4560546875 -5.2708984375 -15.55 -4.7 -15.6783203125 -3.46640625 -15.65 -2.25 -15.55 2.85 -20.3 1.5 -21.85 1.05 -23.4 0.75 -23.8501953125 0.675 -24.25 0.5 -24.2955078125 0.6806640625 -24.4 0.8 -24.6998046875 1.6798828125 -25.3 2.5 -25.323828125 2.5318359375 -25.35 2.55 -25.823828125 3.3494140625 -26.45 4.05 -27.280078125 5.32578125 -28.05 6.65 -28.7859375 7.8669921875 -29.75 8.8 -29.041796875 9.08203125 -28.35 9.55 -27.4 10.2 -26.7 9.45 -25.39453125 7.991015625 -24 6.8 -23.93125 6.7404296875 -23.85 6.7 -23.4736328125 6.4251953125 -23.1 6.15 -22.0189453125 6.4361328125 -21.9 7.2 -19.335546875 7.8322265625 -16.65 8.25 -14.176953125 8.030078125 -11.9 6.5 -10.9830078125 5.5498046875 -10.4 4.45 -9.224609375 0.098828125 -9.95 -4.35 -10.3380859375 -5.6291015625 -10.85 -6.85 -12.0306640625 -9.736328125 -10.75 -11.65 -11.2623046875 -12.1623046875 -12.05 -12.35 -12.45 -12.45 -12.85 -12.5 -14.2 -12.3 -14.9 -11.15 -15.55 -10.1 -15.8 -8.9 -15.8125 -8.8373046875 -15.85 -8.8 -15.705078125 -8.6810546875 -15.6 -8.6 -15.00703125 -8.7013671875 -15.1 -8.05 Z"/>

<path fill="#000000" stroke="none" d="
M -25.8 -1.2
Q -25.81328125 -1.155078125 -25.85 -1.1 -26.217578125 -0.5166015625 -26.6 0.05 -28.7908203125 2.4279296875 -30.8 5.05 -31.7279296875 6.27890625 -32.05 7.5 -32.3919921875 7.9251953125 -32.75 8.35 -33.2 8.9 -32.7 9.45 -32.4216796875 9.7671875 -32.15 10.05 -31.09296875 11.9857421875 -28.65 12.2 -24.75078125 12.565625 -22.85 9.7 -22.3568359375 10.0599609375 -21.7 10.3 -13.1 13.45 -8.45 6.35 -7.05 4.3 -6.9 1.75 -6.4345703125 -5.3234375 -9.65 -11.25 -9.7248046875 -11.4890625 -9.8 -11.75 -9.89765625 -12.140625 -10.3 -12.15
L -10.3 -12.15
Q -10.53828125 -11.89921875 -10.75 -11.65 -12.0306640625 -9.736328125 -10.85 -6.85 -10.3380859375 -5.6291015625 -9.95 -4.35 -9.224609375 0.098828125 -10.4 4.45 -10.9830078125 5.5498046875 -11.9 6.5 -14.176953125 8.030078125 -16.65 8.25 -19.335546875 7.8322265625 -21.9 7.2 -22.0189453125 6.4361328125 -23.1 6.15 -23.4736328125 6.4251953125 -23.85 6.7 -23.93125 6.7404296875 -24 6.8 -25.39453125 7.991015625 -26.7 9.45 -27.4 10.2 -28.35 9.55 -29.041796875 9.08203125 -29.75 8.8 -28.7859375 7.8669921875 -28.05 6.65 -27.280078125 5.32578125 -26.45 4.05 -25.823828125 3.3494140625 -25.35 2.55 -25.323828125 2.5318359375 -25.3 2.5 -24.6998046875 1.6798828125 -24.4 0.8 -24.2955078125 0.6806640625 -24.25 0.5 -23.8501953125 0.675 -23.4 0.75 -21.85 1.05 -20.3 1.5 -15.55 2.85 -15.65 -2.25 -15.6783203125 -3.46640625 -15.55 -4.7 -15.4560546875 -5.2708984375 -15.4 -5.9 -15.3169921875 -6.1876953125 -15.25 -6.5 -15.1208984375 -7.059375 -15.15 -7.5 -15.1291015625 -7.7806640625 -15.1 -8.05 -15.00703125 -8.7013671875 -15.6 -8.6 -15.705078125 -8.6810546875 -15.85 -8.8 -16.06796875 -8.9650390625 -16.4 -9.1 -17.95 -8.7 -18.05 -7.1 -18.1 -5.7 -18.25 -4.3 -18.35 -2.9 -18.55 -1.5 -18.55 -1.15 -18.6 -0.8 -21.1572265625 -1.973828125 -24.05 -1.9 -24.1 -2 -24.2 -2 -24.35 -2.05 -24.5 -2.1 -24.6328125 -1.969140625 -24.8 -1.85 -24.95546875 -1.822265625 -25.15 -1.8 -25.8216796875 -1.7208984375 -25.8 -1.2 Z"/>
</g>

<g id="Puppy_Scared_Run__assets___Duplicate_Items_Folder_dog_legrun_0_Layer0_0_FILL">
<path fill="#FFCC66" stroke="none" d="
M -8.45 -3.05
Q -8.356640625 -2.9646484375 -8.3 -2.9 -8.20703125 -2.949609375 -8.15 -3 -8.276171875 -3.005078125 -8.45 -3.05
M 8.7 -8.5
Q 9.1 -11.85 5.5 -11.95 0.3248046875 -12.08984375 -4.65 -11.75 -6.760546875 -11.5904296875 -8.85 -11.35 -8.8669921875 -11.412109375 -8.9 -11.5 -9.95625 -10.232421875 -10.5 -8.7 -11.1 -7.05 -10.5 -5.45 -10.35 -5 -9.95 -4.65 -9.9908203125 -4.637109375 -10.05 -4.65 -9.7212890625 -4.36015625 -9.4 -4.05 -8.405859375 -4.826953125 -7.25 -5.1 -5.7103515625 -5.46640625 -3.9 -5 -3.1 -4.8 -2.3 -5.1 0.5 -6.05 -0.55 -3.55 -0.8 -2.95 -0.95 -2.3 -1.15 -1.45 -1.2 -0.55 -1.3 1.05 -1.25 2.7 -1.2 3.95 -0.95 5.2 -0.8 5.9 -0.45 6.55 1.4 6.85 3.4 6.65 6.9 6.25 10.4 6.05 12.95 5.85 15.3 4.9 15.35 4.85 15.4 4.8 15.65 0.9 11.55 0.25 9.1 -0.15 6.8 0.55 3.6 1.5 6 -1.7 8.3 -4.8 8.7 -8.5 Z"/>

<path fill="#000000" stroke="none" d="
M 5.35 -14.55
Q 2.9 -14.55 0.55 -14.2 -1.75 -13.85 -4.1 -13.65 -6.5 -13.4 -8.45 -12.25 -8.937890625 -11.9396484375 -8.9 -11.5 -8.8669921875 -11.412109375 -8.85 -11.35 -6.760546875 -11.5904296875 -4.65 -11.75 0.3248046875 -12.08984375 5.5 -11.95 9.1 -11.85 8.7 -8.5 8.3 -4.8 6 -1.7 3.6 1.5 6.8 0.55 9.1 -0.15 11.55 0.25 15.65 0.9 15.4 4.8 15.35 4.85 15.3 4.9 12.95 5.85 10.4 6.05 6.9 6.25 3.4 6.65 1.4 6.85 -0.45 6.55 -0.8 5.9 -0.95 5.2 -1.2 3.95 -1.25 2.7 -1.3 1.05 -1.2 -0.55 -1.15 -1.45 -0.95 -2.3 -0.8 -2.95 -0.55 -3.55 0.5 -6.05 -2.3 -5.1 -3.1 -4.8 -3.9 -5 -5.7103515625 -5.46640625 -7.25 -5.1 -8.405859375 -4.826953125 -9.4 -4.05 -9.182421875 -3.841796875 -8.95 -3.6 -8.662890625 -3.30625 -8.45 -3.05 -8.276171875 -3.005078125 -8.15 -3 -7.96640625 -2.9861328125 -7.8 -3 -6.2 -3.15 -4.6 -2.9 -3.7 -2.75 -3.15 -2.6 -3.35 -0.45 -3.5 1.75 -3.65 4.05 -2.95 6.25 -1.65 10.25 2.95 9.15 5.35 8.55 7.8 8.5 12.65 8.4 16.65 6.15 17.75 5.5 17.6 4.2 16.7 -3.3 8.5 -1.9 8.55 -2 8.65 -2.1 9.45 -3.1 10 -4.2 10.7 -5.55 10.95 -7 11.1 -8 11.25 -8.95 11.4 -9.9 10.85 -10.75 10.8 -10.9 10.75 -11.05 10.05 -13.45 7.5 -14 6.35 -14.25 5.35 -14.55 Z"/>
</g>

<g id="Puppy_Scared_Run__assets___Duplicate_Items_Folder_dog_tail_3_Layer0_0_FILL">
<path fill="#000000" stroke="none" d="
M 1.5 -14.65
Q 1.5 -12.4 4.6 -6.85 8.6 0.5 13.65 0.5 14.3 0.5 14.75 0 15.15 -0.45 15.15 -1.05 9.85 -5.25 6.3 -9.45 5.15 -10.65 3.9 -14.1 2.9 -16.85 1.8 -17 1.5 -15.4 1.5 -14.65 Z"/>
</g>

<g id="Puppy_Scared_Run__assets___Duplicate_Items_Folder_dog_body1_0_Layer0_0_FILL">
<path fill="#000000" stroke="none" d="
M 17.3 -15.55
Q 13.9 -35.25 5.2 -24.9 -0.7 -17.85 -9.15 -4 -19.55 13.1 -19.55 19.4 -19.55 21.9 -17.35 24.15 -13.15 28.45 -2.55 28.45 14.55 28.45 18.4 21.3 19.7 18.95 19.55 15.55 19.15 12.2 19.15 11.2 19.15 -5 17.3 -15.55
M 6.4 -21.2
Q 10.95 -32.35 13.55 -13.5 15.35 -0.6 15.35 11.5 15.35 12.05 15.7 14.35 15.85 16.75 14.8 18.5 11.6 23.9 -2.55 23.9 -8.75 23.9 -12.45 21.65 -15.25 19.95 -15.25 18.35 -15.25 13.95 -4.95 -3.35 3.55 -17.6 6.4 -21.2 Z"/>

<path fill="#FFCC66" stroke="none" d="
M 13.55 -13.5
Q 10.95 -32.35 6.4 -21.2 3.55 -17.6 -4.95 -3.35 -15.25 13.95 -15.25 18.35 -15.25 19.95 -12.45 21.65 -8.75 23.9 -2.55 23.9 11.6 23.9 14.8 18.5 15.85 16.75 15.7 14.35 15.35 12.05 15.35 11.5 15.35 -0.6 13.55 -13.5 Z"/>
</g>

<g id="Puppy_Scared_Run__assets___Duplicate_Items_Folder_dog_ear2_0_Layer0_0_FILL">
<path fill="#FFCC66" stroke="none" d="
M 9.15 -3.6
Q 6.2 -8.75 3.4 -9.2 0.55 -9.7 -2.1 -9.8 -4.75 -9.9 -7.55 -7.85 -10.35 -5.85 -10.65 -5.6 -12.05 -4.55 -14.1 -2.75 -14.1 -2.6 -14 -1.4 -13.45 -0.2 -11.6 -0.2 -11.35 -0.2 -11.1 -0.2 -10.75 -1.8 -9.35 -2.7 -7.95 -3.6 -6.15 -4.8 -4.35 -6 -1.7 -6.2 0.95 -6.45 0.95 -4.7 0.95 -3.95 0.3 -3.7 -0.35 -3.4 -0.35 -2.75 -0.35 -2.7 0.4 -0.75 1.1 1.15 3.5 4.85 5.9 8.55 8.1 8.55 10.25 8.55 11.25 6.55 12.05 4.95 12.05 4.2 12.05 1.5 9.15 -3.6 Z"/>

<path fill="#000000" stroke="none" d="
M 13.7 -2.5
Q 11.25 -7.6 7.85 -9.95 4.4 -12.3 -2.05 -12.6 -8.55 -12.9 -15.75 -4.05
L -15.75 -2.25 -14.65 -2.35
Q -14.35 -2.55 -14.1 -2.75 -12.05 -4.55 -10.65 -5.6 -10.35 -5.85 -7.55 -7.85 -4.75 -9.9 -2.1 -9.8 0.55 -9.7 3.4 -9.2 6.2 -8.75 9.15 -3.6 12.05 1.5 12.05 4.2 12.05 4.95 11.25 6.55 10.25 8.55 8.1 8.55 5.9 8.55 3.5 4.85 1.1 1.15 0.4 -0.75 -0.35 -2.7 -0.35 -2.75 -0.35 -3.4 0.3 -3.7 0.95 -3.95 0.95 -4.7 0.95 -6.45 -1.7 -6.2 -4.35 -6 -6.15 -4.8 -7.95 -3.6 -9.35 -2.7 -10.75 -1.8 -11.1 -0.2 -11.2 0 -11.2 0.3
L -10.05 1.65
Q -9.45 1.6 -9 1.5 -7.6 1.2 -6.95 0.6 -5 -1.15 -4.6 -1.4
L -4.3 -1.1
Q -4.05 0.15 -3.4 1.5 -2.15 4.15 0.45 7.25 4.9 12.6 8.6 12.6 12.9 12.6 14.7 9.25 15.8 7.15 15.8 4.35 15.8 1.8 13.7 -2.5 Z"/>
</g>

<g id="Puppy_Scared_Run__assets___Duplicate_Items_Folder_dog_head_0_Layer0_0_FILL">
<path fill="#000000" stroke="none" d="
M 12.7 -8.05
Q 12.55 -8.15 12.45 -8.2 12.25 -8.9 11.9 -9.5 10.95 -11.1 9.1 -11.75 8.25 -12.95 7.05 -14.25 3.1 -18.55 2.6 -19.35 0.85 -22.7 -2.75 -24.15 -3.3 -24.4 -3.85 -24.5 -4.3 -24.7 -5 -24.7 -5.85 -24.8 -6.55 -24.6 -6.65 -24.6 -6.75 -24.55 -10.25 -24.85 -13.4 -22.9 -15.6 -21.6 -16.35 -20.25 -19.85 -17.75 -20.35 -14.95 -21.2 -9.8 -21 0.9 -21 1 -20 9.55 -18.9 16.05 -17.3 17.6 -16.75 18.9 -15.65 20.35 -12.3 24.75 -5.45 24.75 10.65 24.75 17.2 19.15 21.1 15.75 21.1 10.85 21.1 8.85 20.1 5.65 18.8 2.05 18.3 0.3 16.2 -5.8 12.7 -8.05
M 2.9 -14.8
Q 4.2 -13.4 5.25 -12.25 -1.1 -12 -4.6 -6.4 -7.1 -2.4 -7.1 0.9 -7.1 1 -6.9 4.25 -6.15 7.45 -3 7.45 7.95 7.45 11.35 1.2 12.05 -0.05 12.4 -1.95
L 13.35 -0.65
Q 17.4 5.95 17.4 11.05 17.4 13.95 13.85 16.55 7.95 20.95 -5.45 20.95 -11 20.95 -13.1 18 -13.9 16.15 -14.65 14.95 -15.05 13.6 -15.45 12.25 -16.5 8.45 -16.55 6.25 -16.55 4.8 -17.15 1.25 -17.75 -2.35 -17.75 -3.75 -17.85 -6.2 -17.85 -8.3 -17.8 -12.35 -17.1 -14.15 -15.8 -17.3 -14 -19.3 -12.462890625 -20.5287109375 -10.8 -21.25 -9.1404296875 -21.966015625 -8.65 -21.9 -8.1033203125 -21.7947265625 -7.8 -21.8 -3.4 -21.8 2.9 -14.8
M -6.95 -9.85
Q -6.5 -10.75 -6.5 -11.8 -6.5 -14.25 -9 -15.05 -11.4984375 -15.8494140625 -11.5 -12.7 -11.4978515625 -12.9330078125 -11.25 -10.95 -10.5 -8.75 -8.45 -8.75 -7.5 -8.75 -6.95 -9.85
M -5.95 -16.25
Q -5.95 -15.3 -5.2 -14.25 -4.05 -12.75 -1.95 -12.75 -1.25 -12.75 -0.9 -13 -0.7 -13.1 -0.55 -13.25
L -0.35 -14.6
Q -0.85 -17.55 -3.4 -18.1 -5.95 -18.6 -5.95 -16.25 Z"/>

<path fill="#FFCC66" stroke="none" d="
M 5.25 -12.25
Q 4.2 -13.4 2.9 -14.8 -3.4 -21.8 -7.8 -21.8 -8.1033203125 -21.7947265625 -8.65 -21.9 -9.1404296875 -21.966015625 -10.8 -21.25 -12.462890625 -20.5287109375 -14 -19.3 -15.8 -17.3 -17.1 -14.15 -17.8 -12.35 -17.85 -8.3 -17.85 -6.2 -17.75 -3.75 -17.75 -2.35 -17.15 1.25 -16.55 4.8 -16.55 6.25 -16.5 8.45 -15.45 12.25 -15.05 13.6 -14.65 14.95 -13.9 16.15 -13.1 18 -11 20.95 -5.45 20.95 7.95 20.95 13.85 16.55 17.4 13.95 17.4 11.05 17.4 5.95 13.35 -0.65
L 12.4 -1.95
Q 12.05 -0.05 11.35 1.2 7.95 7.45 -3 7.45 -6.15 7.45 -6.9 4.25 -7.1 1 -7.1 0.9 -7.1 -2.4 -4.6 -6.4 -1.1 -12 5.25 -12.25
M -5.2 -14.25
Q -5.95 -15.3 -5.95 -16.25 -5.95 -18.6 -3.4 -18.1 -0.85 -17.55 -0.35 -14.6
L -0.55 -13.25
Q -0.7 -13.1 -0.9 -13 -1.25 -12.75 -1.95 -12.75 -4.05 -12.75 -5.2 -14.25
M -6.5 -11.8
Q -6.5 -10.75 -6.95 -9.85 -7.5 -8.75 -8.45 -8.75 -10.5 -8.75 -11.25 -10.95 -11.4978515625 -12.9330078125 -11.5 -12.7 -11.4984375 -15.8494140625 -9 -15.05 -6.5 -14.25 -6.5 -11.8 Z"/>
</g>

<g id="Puppy_Scared_Run__assets___Duplicate_Items_Folder_dog_ear1_0_Layer0_0_FILL">
<path fill="#000000" stroke="none" d="
M 12 -12.7
L 12.9 -12.85
Q 12.95 -12.9 13.15 -13.15
L 13.15 -13.2
Q 13.2 -13.25 13.2 -13.95 13.2 -14.1 13.15 -14.2 12.9 -14.85 11.75 -15.7 11.65 -15.75 11.6 -15.8 9.8 -17.05 7.45 -17.7 1 -19.55 -3.8 -15.55 -5.65 -14.05 -7.1 -11.15 -8.4 -8.6 -8.75 -6.55 -9.15 -4.5 -11.4 2.8 -13.2 8.45 -13.2 11.6 -13.2 13.75 -12.1 15.2 -9.65 18.35 -2.75 18.35 5.3 18.35 6.75 9.2 7.25 6.05 7.15 0.4 7.05 -8 7.05 -8.8 7.3 -8.75 8.3 -8.05 9.2 -7.4 10.1 -7.4 11.2 -7.4 11.35 -7.7 11.6 -7.6 11.6 -8.7 11.6 -8.85 11.5 -9.05 11.05 -9.75 9.5 -10.85 9.1 -11.1 8.75 -11.35 6.6 -12.6 4.4 -12.6 2.25 -12.6 2.25 -10.9 2.25 -10.6 3.15 -8.6 4 -6.6 4 -5.5 4 3.5 3.35 6.35 1.5 14.45 -5.3 14.45 -7.5 14.45 -8.65 13.15 -9.5 12.2 -9.7 10.45 -9.9 8.7 -7.2 -2.25 -4.5 -13.2 0.2 -15.4
L 4.35 -15.4
Q 7 -14.6 8.7 -13.85 9.1 -13.7 9.5 -13.5 10.7 -13.05 12 -12.7 Z"/>

<path fill="#FFCC66" stroke="none" d="
M 12.9 -12.85
L 12 -12.7
Q 10.7 -13.05 9.5 -13.5 9.1 -13.7 8.7 -13.85 7 -14.6 4.35 -15.4
L 0.2 -15.4
Q -4.5 -13.2 -7.2 -2.25 -9.9 8.7 -9.7 10.45 -9.5 12.2 -8.65 13.15 -7.5 14.45 -5.3 14.45 1.5 14.45 3.35 6.35 4 3.5 4 -5.5 4 -6.6 3.15 -8.6 2.25 -10.6 2.25 -10.9 2.25 -12.6 4.4 -12.6 6.6 -12.6 8.75 -11.35 9.1 -11.1 9.5 -10.85 11.05 -9.75 11.5 -9.05 12.25 -9.6 12.7 -11.05 13 -12.05 13.15 -13.15 12.95 -12.9 12.9 -12.85 Z"/>
</g>
</defs>

<g transform="matrix( 1, 0, 0, 1, 675.2,292.3) ">
<g transform="matrix( -4.18402099609375, 1.8818359375, 1.4857025146484375, 4.362548828125, 383.95,296.15) ">
<g transform="matrix( 1, 0, 0, 1, 0,0) ">
<use xlink:href="#Puppy_Scared_Run__assets___Duplicate_Items_Folder_dog_legrun_3_Layer0_0_FILL"/>
</g>
</g>

<g transform="matrix( -4.5878143310546875, 0, -0.434295654296875, 4.588134765625, 253.2,311.3) ">
<g transform="matrix( 1, 0, 0, 1, 0,0) ">
<use xlink:href="#Puppy_Scared_Run__assets___Duplicate_Items_Folder_dog_legrun_0_Layer0_0_FILL"/>
</g>
</g>

<g transform="matrix( -4.18402099609375, 1.8818359375, 1.8817138671875, 4.1843109130859375, 503,164.7) ">
<g transform="matrix( 1, 0, 0, 1, 0,0) ">
<use xlink:href="#Puppy_Scared_Run__assets___Duplicate_Items_Folder_dog_tail_3_Layer0_0_FILL"/>
</g>
</g>

<g transform="matrix( -1.64447021484375, 4.2861785888671875, 4.4106903076171875, 1.30377197265625, 328.2,234) ">
<g transform="matrix( 1, 0, 0, 1, 0,0) ">
<use xlink:href="#Puppy_Scared_Run__assets___Duplicate_Items_Folder_dog_body1_0_Layer0_0_FILL"/>
</g>
</g>

<g transform="matrix( -4.5878143310546875, 0, -0.434295654296875, 4.588134765625, 275.9,335.85) ">
<g transform="matrix( 1, 0, 0, 1, 0,0) ">
<use xlink:href="#Puppy_Scared_Run__assets___Duplicate_Items_Folder_dog_legrun_3_Layer0_0_FILL"/>
</g>
</g>

<g transform="matrix( -4.28955078125, 1.92938232421875, 1.523193359375, 4.47259521484375, 381.65,315.65) ">
<g transform="matrix( 1, 0, 0, 1, 0,0) ">
<use xlink:href="#Puppy_Scared_Run__assets___Duplicate_Items_Folder_dog_legrun_0_Layer0_0_FILL"/>
</g>
</g>

<g transform="matrix( 4.256805419921875, -1.5643463134765625, 1.590057373046875, 4.35870361328125, 256.75,150.15) ">
<g transform="matrix( 1, 0, 0, 1, 0,0) ">
<use xlink:href="#Puppy_Scared_Run__assets___Duplicate_Items_Folder_dog_ear2_0_Layer0_0_FILL"/>
</g>
</g>

<g transform="matrix( 4.5424346923828125, -0.479766845703125, 0.5806427001953125, 4.571441650390625, 229.8,242.6) ">
<g transform="matrix( 1, 0, 0, 1, 0,0) ">
<use xlink:href="#Puppy_Scared_Run__assets___Duplicate_Items_Folder_dog_head_0_Layer0_0_FILL"/>
</g>
</g>

<g transform="matrix( 4.5821075439453125, 0.68988037109375, -0.625885009765625, 4.498687744140625, 91.15,220.1) ">
<g transform="matrix( 1, 0, 0, 1, 0,0) ">
<use xlink:href="#Puppy_Scared_Run__assets___Duplicate_Items_Folder_dog_ear1_0_Layer0_0_FILL"/>
</g>
</g>
</g>
</svg>
