
<svg xmlns="http://www.w3.org/2000/svg" version="1.1" xmlns:xlink="http://www.w3.org/1999/xlink" preserveAspectRatio="none" x="0px" y="0px" width="1920px" height="1080px" viewBox="0 0 1920 1080">
<defs>
<g id="Puppy_Scared_Run__assets___Duplicate_Items_Folder_dog_legrun_4_Layer0_0_FILL">
<path fill="#FFCC66" stroke="none" d="
M -12.45 -7.35
L -12.05 -7.4
Q -8.75 -5.3 -7.8 -1.95 -7.4 -0.6 -7.4 2.25 -7.4 3.4 -9.2 6.5 -11 9.7 -12.05 10.3 -7.65 16.65 -6.95 17.45 -6.1 18.35 -4.55 18.35 -3.05 18.35 -3.05 16 -3.05 15.65 -4.35 13.25 -5.65 10.8 -5.65 10.4 -4.15 9 -2.7 7.15 0.259765625 3.5525390625 -0.6 -1.55 -1.467578125 -6.6509765625 -10.15 -13 -13.05 -12.1 -13.05 -9.75 -13.05 -8.45 -12.45 -7.35 Z"/>

<path fill="#000000" stroke="none" d="
M -10.25 -13.55
Q -10.35 -13.25 -10.15 -13 -1.467578125 -6.6509765625 -0.6 -1.55 0.259765625 3.5525390625 -2.7 7.15 -4.15 9 -5.65 10.4 -5.65 10.8 -4.35 13.25 -3.05 15.65 -3.05 16 -3.05 18.35 -4.55 18.35 -6.1 18.35 -6.95 17.45 -7.65 16.65 -12.05 10.3 -11 9.7 -9.2 6.5 -7.4 3.4 -7.4 2.25 -7.4 -0.6 -7.8 -1.95 -8.75 -5.3 -12.05 -7.4
L -12.45 -7.35 -12.65 -7.2
Q -12.45 -5.75 -11.3 -2.9 -10.2 -0.25 -10.2 0.4 -10.2 5.35 -12.6 7.8 -15.05 10.3 -15.05 11.3 -15.05 12 -14.85 12.4 -14.75 12.65 -14.1 13.55 -10.6 18.45 -9.2 19.5 -9.1 19.6 -6.95 21.5 -6.65 21.75 -5.45 21.75 -3.6 21.75 -1.85 20 -0.15 18.3 -0.15 16.4 -0.15 12.6 -2.3 10.95 0.75 7.9 1.9 5.55 3.0994140625 3.1005859375 2.9 -0.2 2.7515625 -3.501953125 -1.1 -8.9 -4.9017578125 -14.2482421875 -7.5 -14.15 -10.099609375 -14.00078125 -10.25 -13.55 Z"/>
</g>

<g id="Puppy_Scared_Run__assets___Duplicate_Items_Folder_dog_legrun_1_Layer0_0_FILL">
<path fill="#FFCC66" stroke="none" d="
M 7.7 -1.3
Q 7.6388671875 -1.3912109375 7.55 -1.5 3.7 -6.2 -1.75 -9.25 -3.25 -10.1 -4.85 -10.55 -4.9140625 -10.569140625 -5 -10.6 -7.24765625 -11.2787109375 -8.95 -12.3 -9.3271484375 -12.501171875 -9.7 -12.75 -10.0017578125 -12.9263671875 -10.3 -13.15 -10.273828125 -13.20234375 -10.25 -13.25 -10.571484375 -13.41015625 -10.9 -13.6 -10.9478515625 -13.568359375 -11 -13.55 -11.908203125 -13.202734375 -12.65 -12.55 -14 -11.35 -14.1 -9.5 -14.13125 -8.3728515625 -13.55 -7.65 -13.179296875 -7.1677734375 -12.6 -6.85 -12.15 -6.65 -11.75 -6.45
L -11.7 -6.4
Q -10.8 -6.3 -9.95 -5.9 -9.85 -5.85 -9.75 -5.8 -6.4666015625 -4.1169921875 -3.55 -2 -1.151171875 -0.2392578125 1 1.8 3.95 4.5 6.45 7.5 7.1140625 8.3130859375 7.8 9.05 9.6724609375 11.1640625 11.75 12.95 11.85 12.85 12 12.8 12.02734375 12.7880859375 12.05 12.75 14.4240234375 11.7322265625 16.5 10.2 17.85 9.15 19.05 7.9 20.05 6.75 20.95 5.5 21.44375 4.7595703125 21.45 4 21.4810546875 3.2841796875 21 2.55 20.4505859375 2.528515625 19.9 2.6 17.9759765625 2.826953125 16.25 4.2 15.65 4.7 15.2 5.3 13.1 7.95 11.65 4.95 10.059765625 1.6251953125 7.7 -1.3 Z"/>

<path fill="#000000" stroke="none" d="
M 7.55 -1.5
Q 7.6388671875 -1.3912109375 7.7 -1.3 10.059765625 1.6251953125 11.65 4.95 13.1 7.95 15.2 5.3 15.65 4.7 16.25 4.2 17.9759765625 2.826953125 19.9 2.6 20.4505859375 2.528515625 21 2.55 21.4810546875 3.2841796875 21.45 4 21.44375 4.7595703125 20.95 5.5 20.05 6.75 19.05 7.9 17.85 9.15 16.5 10.2 14.4240234375 11.7322265625 12.05 12.75 12.02734375 12.7880859375 12 12.8 11.85 12.85 11.75 12.95 9.6724609375 11.1640625 7.8 9.05 7.1140625 8.3130859375 6.45 7.5 3.95 4.5 1 1.8 -1.151171875 -0.2392578125 -3.55 -2 -6.4666015625 -4.1169921875 -9.75 -5.8 -9.85 -5.85 -9.95 -5.9 -10.8 -6.3 -11.7 -6.4
L -11.75 -6.45
Q -12.15 -6.65 -12.6 -6.85 -13.179296875 -7.1677734375 -13.55 -7.65 -13.6439453125 -7.63828125 -13.75 -7.65 -13.9 -7.65 -14.05 -7.65 -14.2 -7.6 -14.35 -7.6 -14.45 -7.55 -14.55 -7.55 -14.65 -7.5 -14.8 -7.4 -13.5 -5.1 -10.65 -3.55 -9.45 -2.95 -8.35 -2.1 -3.9 1.45 0.1 5.5 4.1 9.55 8.4 13.35 10.35 15.05 12.7 15.9 12.85 15.85 13.05 15.8 13.15 15.75 13.2 15.7
L 13.25 15.65
Q 14.6044921875 15.666015625 15.85 14.65 20.6 10.8 23.9 5.65 25.2 3.55 23.3 1.55 21.85 0 19.8 -0.15 18.25 -0.2 16.8 0.35 15.35 0.95 14.15 2
L 14.1 2
Q 8.2994140625 -7.025 -1.6 -11.95 -4.909765625 -13.6048828125 -8.4 -14.45 -8.5931640625 -14.484765625 -8.8 -14.55 -9.0248046875 -14.6357421875 -9.25 -14.7 -9.35 -14.7 -9.45 -14.75 -9.5146484375 -14.75 -9.6 -14.75 -9.6921875 -14.7759765625 -9.8 -14.8 -9.95 -14.8 -10.15 -14.75 -10.1916015625 -14.7333984375 -10.25 -14.75 -10.316796875 -14.7091796875 -10.4 -14.7 -10.8 -14.7 -11.05 -14.45 -11.25 -14.15 -11.2 -13.85 -11.15 -13.7 -11.1 -13.7
L -11.1 -13.7
Q -11.0423828125 -13.6119140625 -11 -13.55 -10.9478515625 -13.568359375 -10.9 -13.6 -10.571484375 -13.41015625 -10.25 -13.25 -10.273828125 -13.20234375 -10.3 -13.15 -10.0017578125 -12.9263671875 -9.7 -12.75 -9.3271484375 -12.501171875 -8.95 -12.3 -7.24765625 -11.2787109375 -5 -10.6 -4.9140625 -10.569140625 -4.85 -10.55 -3.25 -10.1 -1.75 -9.25 3.7 -6.2 7.55 -1.5 Z"/>
</g>

<g id="Puppy_Scared_Run__assets___Duplicate_Items_Folder_dog_tail_4_Layer0_0_FILL">
<path fill="#000000" stroke="none" d="
M 9.6 -17.3
L 9.45 -17.85
Q 5.55 -18.35 5.55 -8.55 5.65 -6.05 6.75 -3.9 8.95 0.45 13.95 0.45 14.4 0.45 14.8 0.15 15.35 -0.25 15.35 -0.9 15.35 -1.95 14.2 -2.65 12.6 -3.45 11.65 -3.95 7.95 -6.15 7.95 -11.85 7.95 -12.25 8.6 -14.55 9.3 -16.9 9.6 -17.3 Z"/>
</g>

<g id="Puppy_Scared_Run__assets___Duplicate_Items_Folder_dog_body1_0_Layer0_0_FILL">
<path fill="#000000" stroke="none" d="
M 17.3 -15.55
Q 13.9 -35.25 5.2 -24.9 -0.7 -17.85 -9.15 -4 -19.55 13.1 -19.55 19.4 -19.55 21.9 -17.35 24.15 -13.15 28.45 -2.55 28.45 14.55 28.45 18.4 21.3 19.7 18.95 19.55 15.55 19.15 12.2 19.15 11.2 19.15 -5 17.3 -15.55
M 6.4 -21.2
Q 10.95 -32.35 13.55 -13.5 15.35 -0.6 15.35 11.5 15.35 12.05 15.7 14.35 15.85 16.75 14.8 18.5 11.6 23.9 -2.55 23.9 -8.75 23.9 -12.45 21.65 -15.25 19.95 -15.25 18.35 -15.25 13.95 -4.95 -3.35 3.55 -17.6 6.4 -21.2 Z"/>

<path fill="#FFCC66" stroke="none" d="
M 13.55 -13.5
Q 10.95 -32.35 6.4 -21.2 3.55 -17.6 -4.95 -3.35 -15.25 13.95 -15.25 18.35 -15.25 19.95 -12.45 21.65 -8.75 23.9 -2.55 23.9 11.6 23.9 14.8 18.5 15.85 16.75 15.7 14.35 15.35 12.05 15.35 11.5 15.35 -0.6 13.55 -13.5 Z"/>
</g>

<g id="Puppy_Scared_Run__assets___Duplicate_Items_Folder_dog_ear2_0_Layer0_0_FILL">
<path fill="#FFCC66" stroke="none" d="
M 9.15 -3.6
Q 6.2 -8.75 3.4 -9.2 0.55 -9.7 -2.1 -9.8 -4.75 -9.9 -7.55 -7.85 -10.35 -5.85 -10.65 -5.6 -12.05 -4.55 -14.1 -2.75 -14.1 -2.6 -14 -1.4 -13.45 -0.2 -11.6 -0.2 -11.35 -0.2 -11.1 -0.2 -10.75 -1.8 -9.35 -2.7 -7.95 -3.6 -6.15 -4.8 -4.35 -6 -1.7 -6.2 0.95 -6.45 0.95 -4.7 0.95 -3.95 0.3 -3.7 -0.35 -3.4 -0.35 -2.75 -0.35 -2.7 0.4 -0.75 1.1 1.15 3.5 4.85 5.9 8.55 8.1 8.55 10.25 8.55 11.25 6.55 12.05 4.95 12.05 4.2 12.05 1.5 9.15 -3.6 Z"/>

<path fill="#000000" stroke="none" d="
M 13.7 -2.5
Q 11.25 -7.6 7.85 -9.95 4.4 -12.3 -2.05 -12.6 -8.55 -12.9 -15.75 -4.05
L -15.75 -2.25 -14.65 -2.35
Q -14.35 -2.55 -14.1 -2.75 -12.05 -4.55 -10.65 -5.6 -10.35 -5.85 -7.55 -7.85 -4.75 -9.9 -2.1 -9.8 0.55 -9.7 3.4 -9.2 6.2 -8.75 9.15 -3.6 12.05 1.5 12.05 4.2 12.05 4.95 11.25 6.55 10.25 8.55 8.1 8.55 5.9 8.55 3.5 4.85 1.1 1.15 0.4 -0.75 -0.35 -2.7 -0.35 -2.75 -0.35 -3.4 0.3 -3.7 0.95 -3.95 0.95 -4.7 0.95 -6.45 -1.7 -6.2 -4.35 -6 -6.15 -4.8 -7.95 -3.6 -9.35 -2.7 -10.75 -1.8 -11.1 -0.2 -11.2 0 -11.2 0.3
L -10.05 1.65
Q -9.45 1.6 -9 1.5 -7.6 1.2 -6.95 0.6 -5 -1.15 -4.6 -1.4
L -4.3 -1.1
Q -4.05 0.15 -3.4 1.5 -2.15 4.15 0.45 7.25 4.9 12.6 8.6 12.6 12.9 12.6 14.7 9.25 15.8 7.15 15.8 4.35 15.8 1.8 13.7 -2.5 Z"/>
</g>

<g id="Puppy_Scared_Run__assets___Duplicate_Items_Folder_dog_head_0_Layer0_0_FILL">
<path fill="#000000" stroke="none" d="
M 12.7 -8.05
Q 12.55 -8.15 12.45 -8.2 12.25 -8.9 11.9 -9.5 10.95 -11.1 9.1 -11.75 8.25 -12.95 7.05 -14.25 3.1 -18.55 2.6 -19.35 0.85 -22.7 -2.75 -24.15 -3.3 -24.4 -3.85 -24.5 -4.3 -24.7 -5 -24.7 -5.85 -24.8 -6.55 -24.6 -6.65 -24.6 -6.75 -24.55 -10.25 -24.85 -13.4 -22.9 -15.6 -21.6 -16.35 -20.25 -19.85 -17.75 -20.35 -14.95 -21.2 -9.8 -21 0.9 -21 1 -20 9.55 -18.9 16.05 -17.3 17.6 -16.75 18.9 -15.65 20.35 -12.3 24.75 -5.45 24.75 10.65 24.75 17.2 19.15 21.1 15.75 21.1 10.85 21.1 8.85 20.1 5.65 18.8 2.05 18.3 0.3 16.2 -5.8 12.7 -8.05
M 2.9 -14.8
Q 4.2 -13.4 5.25 -12.25 -1.1 -12 -4.6 -6.4 -7.1 -2.4 -7.1 0.9 -7.1 1 -6.9 4.25 -6.15 7.45 -3 7.45 7.95 7.45 11.35 1.2 12.05 -0.05 12.4 -1.95
L 13.35 -0.65
Q 17.4 5.95 17.4 11.05 17.4 13.95 13.85 16.55 7.95 20.95 -5.45 20.95 -11 20.95 -13.1 18 -13.9 16.15 -14.65 14.95 -15.05 13.6 -15.45 12.25 -16.5 8.45 -16.55 6.25 -16.55 4.8 -17.15 1.25 -17.75 -2.35 -17.75 -3.75 -17.85 -6.2 -17.85 -8.3 -17.8 -12.35 -17.1 -14.15 -15.8 -17.3 -14 -19.3 -12.462890625 -20.5287109375 -10.8 -21.25 -9.1404296875 -21.966015625 -8.65 -21.9 -8.1033203125 -21.7947265625 -7.8 -21.8 -3.4 -21.8 2.9 -14.8
M -6.95 -9.85
Q -6.5 -10.75 -6.5 -11.8 -6.5 -14.25 -9 -15.05 -11.4984375 -15.8494140625 -11.5 -12.7 -11.4978515625 -12.9330078125 -11.25 -10.95 -10.5 -8.75 -8.45 -8.75 -7.5 -8.75 -6.95 -9.85
M -5.95 -16.25
Q -5.95 -15.3 -5.2 -14.25 -4.05 -12.75 -1.95 -12.75 -1.25 -12.75 -0.9 -13 -0.7 -13.1 -0.55 -13.25
L -0.35 -14.6
Q -0.85 -17.55 -3.4 -18.1 -5.95 -18.6 -5.95 -16.25 Z"/>

<path fill="#FFCC66" stroke="none" d="
M 5.25 -12.25
Q 4.2 -13.4 2.9 -14.8 -3.4 -21.8 -7.8 -21.8 -8.1033203125 -21.7947265625 -8.65 -21.9 -9.1404296875 -21.966015625 -10.8 -21.25 -12.462890625 -20.5287109375 -14 -19.3 -15.8 -17.3 -17.1 -14.15 -17.8 -12.35 -17.85 -8.3 -17.85 -6.2 -17.75 -3.75 -17.75 -2.35 -17.15 1.25 -16.55 4.8 -16.55 6.25 -16.5 8.45 -15.45 12.25 -15.05 13.6 -14.65 14.95 -13.9 16.15 -13.1 18 -11 20.95 -5.45 20.95 7.95 20.95 13.85 16.55 17.4 13.95 17.4 11.05 17.4 5.95 13.35 -0.65
L 12.4 -1.95
Q 12.05 -0.05 11.35 1.2 7.95 7.45 -3 7.45 -6.15 7.45 -6.9 4.25 -7.1 1 -7.1 0.9 -7.1 -2.4 -4.6 -6.4 -1.1 -12 5.25 -12.25
M -5.2 -14.25
Q -5.95 -15.3 -5.95 -16.25 -5.95 -18.6 -3.4 -18.1 -0.85 -17.55 -0.35 -14.6
L -0.55 -13.25
Q -0.7 -13.1 -0.9 -13 -1.25 -12.75 -1.95 -12.75 -4.05 -12.75 -5.2 -14.25
M -6.5 -11.8
Q -6.5 -10.75 -6.95 -9.85 -7.5 -8.75 -8.45 -8.75 -10.5 -8.75 -11.25 -10.95 -11.4978515625 -12.9330078125 -11.5 -12.7 -11.4984375 -15.8494140625 -9 -15.05 -6.5 -14.25 -6.5 -11.8 Z"/>
</g>

<g id="Puppy_Scared_Run__assets___Duplicate_Items_Folder_dog_ear1_0_Layer0_0_FILL">
<path fill="#000000" stroke="none" d="
M 12 -12.7
L 12.9 -12.85
Q 12.95 -12.9 13.15 -13.15
L 13.15 -13.2
Q 13.2 -13.25 13.2 -13.95 13.2 -14.1 13.15 -14.2 12.9 -14.85 11.75 -15.7 11.65 -15.75 11.6 -15.8 9.8 -17.05 7.45 -17.7 1 -19.55 -3.8 -15.55 -5.65 -14.05 -7.1 -11.15 -8.4 -8.6 -8.75 -6.55 -9.15 -4.5 -11.4 2.8 -13.2 8.45 -13.2 11.6 -13.2 13.75 -12.1 15.2 -9.65 18.35 -2.75 18.35 5.3 18.35 6.75 9.2 7.25 6.05 7.15 0.4 7.05 -8 7.05 -8.8 7.3 -8.75 8.3 -8.05 9.2 -7.4 10.1 -7.4 11.2 -7.4 11.35 -7.7 11.6 -7.6 11.6 -8.7 11.6 -8.85 11.5 -9.05 11.05 -9.75 9.5 -10.85 9.1 -11.1 8.75 -11.35 6.6 -12.6 4.4 -12.6 2.25 -12.6 2.25 -10.9 2.25 -10.6 3.15 -8.6 4 -6.6 4 -5.5 4 3.5 3.35 6.35 1.5 14.45 -5.3 14.45 -7.5 14.45 -8.65 13.15 -9.5 12.2 -9.7 10.45 -9.9 8.7 -7.2 -2.25 -4.5 -13.2 0.2 -15.4
L 4.35 -15.4
Q 7 -14.6 8.7 -13.85 9.1 -13.7 9.5 -13.5 10.7 -13.05 12 -12.7 Z"/>

<path fill="#FFCC66" stroke="none" d="
M 12.9 -12.85
L 12 -12.7
Q 10.7 -13.05 9.5 -13.5 9.1 -13.7 8.7 -13.85 7 -14.6 4.35 -15.4
L 0.2 -15.4
Q -4.5 -13.2 -7.2 -2.25 -9.9 8.7 -9.7 10.45 -9.5 12.2 -8.65 13.15 -7.5 14.45 -5.3 14.45 1.5 14.45 3.35 6.35 4 3.5 4 -5.5 4 -6.6 3.15 -8.6 2.25 -10.6 2.25 -10.9 2.25 -12.6 4.4 -12.6 6.6 -12.6 8.75 -11.35 9.1 -11.1 9.5 -10.85 11.05 -9.75 11.5 -9.05 12.25 -9.6 12.7 -11.05 13 -12.05 13.15 -13.15 12.95 -12.9 12.9 -12.85 Z"/>
</g>
</defs>

<g transform="matrix( 1, 0, 0, 1, 675.2,292.3) ">
<g transform="matrix( -4.18402099609375, 1.8818359375, 1.4857025146484375, 4.362548828125, 383.95,296.15) ">
<g transform="matrix( 1, 0, 0, 1, 0,0) ">
<use xlink:href="#Puppy_Scared_Run__assets___Duplicate_Items_Folder_dog_legrun_4_Layer0_0_FILL"/>
</g>
</g>

<g transform="matrix( -4.5878143310546875, 0, -0.434295654296875, 4.588134765625, 253.2,311.3) ">
<g transform="matrix( 1, 0, 0, 1, 0,0) ">
<use xlink:href="#Puppy_Scared_Run__assets___Duplicate_Items_Folder_dog_legrun_1_Layer0_0_FILL"/>
</g>
</g>

<g transform="matrix( -4.18402099609375, 1.8818359375, 1.8817138671875, 4.1843109130859375, 503,164.7) ">
<g transform="matrix( 1, 0, 0, 1, 0,0) ">
<use xlink:href="#Puppy_Scared_Run__assets___Duplicate_Items_Folder_dog_tail_4_Layer0_0_FILL"/>
</g>
</g>

<g transform="matrix( -1.64447021484375, 4.2861785888671875, 4.4106903076171875, 1.30377197265625, 328.2,234) ">
<g transform="matrix( 1, 0, 0, 1, 0,0) ">
<use xlink:href="#Puppy_Scared_Run__assets___Duplicate_Items_Folder_dog_body1_0_Layer0_0_FILL"/>
</g>
</g>

<g transform="matrix( -4.5878143310546875, 0, -0.434295654296875, 4.588134765625, 275.9,335.85) ">
<g transform="matrix( 1, 0, 0, 1, 0,0) ">
<use xlink:href="#Puppy_Scared_Run__assets___Duplicate_Items_Folder_dog_legrun_4_Layer0_0_FILL"/>
</g>
</g>

<g transform="matrix( -4.28955078125, 1.92938232421875, 1.523193359375, 4.47259521484375, 381.65,315.65) ">
<g transform="matrix( 1, 0, 0, 1, 0,0) ">
<use xlink:href="#Puppy_Scared_Run__assets___Duplicate_Items_Folder_dog_legrun_1_Layer0_0_FILL"/>
</g>
</g>

<g transform="matrix( 4.257080078125, -1.56427001953125, 1.589935302734375, 4.35888671875, 256.85,145.9) ">
<g transform="matrix( 1, 0, 0, 1, 0,0) ">
<use xlink:href="#Puppy_Scared_Run__assets___Duplicate_Items_Folder_dog_ear2_0_Layer0_0_FILL"/>
</g>
</g>

<g transform="matrix( 4.5425872802734375, -0.47967529296875, 0.5806732177734375, 4.5718841552734375, 229.8,238.15) ">
<g transform="matrix( 1, 0, 0, 1, 0,0) ">
<use xlink:href="#Puppy_Scared_Run__assets___Duplicate_Items_Folder_dog_head_0_Layer0_0_FILL"/>
</g>
</g>

<g transform="matrix( 4.5821990966796875, 0.689727783203125, -0.625762939453125, 4.4990692138671875, 91,215.65) ">
<g transform="matrix( 1, 0, 0, 1, 0,0) ">
<use xlink:href="#Puppy_Scared_Run__assets___Duplicate_Items_Folder_dog_ear1_0_Layer0_0_FILL"/>
</g>
</g>
</g>
</svg>
