
<svg xmlns="http://www.w3.org/2000/svg" version="1.1" xmlns:xlink="http://www.w3.org/1999/xlink" preserveAspectRatio="none" x="0px" y="0px" width="1920px" height="1080px" viewBox="0 0 1920 1080">
<defs>
<g id="Puppy_Scared_Run__assets___Duplicate_Items_Folder_dog_legrun_2_Layer0_0_FILL">
<path fill="#FFCC66" stroke="none" d="
M -11 -10.35
Q -11.248046875 -10.4123046875 -11.55 -10.45 -14.55 -10.1 -15.1 -7.5 -15.20703125 -6.965234375 -15.2 -6.55 -15.1279296875 -6.6580078125 -15.05 -6.8 -13.3 -6.35 -12.95 -4.3 -11.45 4.65 -16.15 12.25 -17.65 14.75 -19.35 17.15 -20.4685546875 18.7619140625 -21.95 19.85 -17.419140625 20.2783203125 -12.95 20.45 -9.54453125 20.4482421875 -6.15 20.05 -6.1177734375 19.43203125 -6.05 18.8 -6.27734375 18.0626953125 -7.25 17.65 -8.718359375 16.96484375 -10.35 16.4 -11.571484375 16.26171875 -12.95 16.35 -13.3 16.35 -13.15 16.15 -11.25 13.4 -8.8 10.65 -4.9 6.25 -6.65 1 -7.6998046875 -2.262109375 -9.05 -5.4 -9.437109375 -5.9955078125 -9.9 -6.6 -11.239453125 -8.354296875 -11.1 -9.8 -11.1494140625 -9.8568359375 -11.2 -9.95 -11.15 -10.05 -11.1 -10.1 -11.0591796875 -10.1408203125 -11.05 -10.2 -10.9986328125 -10.2537109375 -11 -10.35 Z"/>

<path fill="#000000" stroke="none" d="
M -10.45 -11.25
Q -10.8115234375 -10.8068359375 -11 -10.35 -10.9986328125 -10.2537109375 -11.05 -10.2 -11.0591796875 -10.1408203125 -11.1 -10.1 -11.15 -10.05 -11.2 -9.95 -11.1494140625 -9.8568359375 -11.1 -9.8 -11.239453125 -8.354296875 -9.9 -6.6 -9.437109375 -5.9955078125 -9.05 -5.4 -7.6998046875 -2.262109375 -6.65 1 -4.9 6.25 -8.8 10.65 -11.25 13.4 -13.15 16.15 -13.3 16.35 -12.95 16.35 -11.571484375 16.26171875 -10.35 16.4 -8.718359375 16.96484375 -7.25 17.65 -6.27734375 18.0626953125 -6.05 18.8 -6.1177734375 19.43203125 -6.15 20.05 -9.54453125 20.4482421875 -12.95 20.45 -17.419140625 20.2783203125 -21.95 19.85 -20.4685546875 18.7619140625 -19.35 17.15 -17.65 14.75 -16.15 12.25 -11.45 4.65 -12.95 -4.3 -13.3 -6.35 -15.05 -6.8 -15.1279296875 -6.6580078125 -15.2 -6.55 -16.4109375 -4.0578125 -15.75 -0.8 -15.35 1.4 -15.65 3.65 -15.870703125 5.30546875 -16.35 6.85 -17.3931640625 9.3087890625 -19.1 11.65 -20.8728515625 14.125390625 -22.7 16.55 -23.26796875 17.3630859375 -23.9 18.15 -24.1576171875 18.56015625 -24.45 18.95 -26.052734375 21.0564453125 -23.6 21.45 -22.80546875 22.4025390625 -21.05 22.7 -13.8978515625 23.8712890625 -7.05 22.45 -6.8146484375 22.4474609375 -6.6 22.45 -5.4537109375 22.4810546875 -4.85 21.9 -4.597265625 21.8697265625 -4.35 21.8 -3.7 21.6 -3.5 20.85 -2.967578125 18.59765625 -4.2 17.05 -4.7830078125 15.8134765625 -6.5 15.25 -7.30859375 14.7908203125 -8.2 14.45 -6.7490234375 13.41171875 -5.65 11.85 -1.3 5.5 -4.25 -2.05 -6.4 -7.45 -10.45 -11.25 Z"/>
</g>

<g id="Puppy_Scared_Run__assets___Duplicate_Items_Folder_dog_legrun_5_Layer0_0_FILL">
<path fill="#FFCC66" stroke="none" d="
M 7.2 -4.3
Q 5.46015625 -7.2443359375 2.3 -8.7 -0.86796875 -10.1013671875 -4.4 -10.5 -5.0435546875 -10.5462890625 -5.65 -10.65 -7.6255859375 -10.9005859375 -8.95 -11.3 -9.35625 -11.4173828125 -9.7 -11.55 -9.7380859375 -11.6640625 -9.75 -11.75 -9.8228515625 -11.8220703125 -9.95 -11.9
L -9.95 -11.9
Q -12.2 -11.25 -11.5 -9.25 -10.9 -7.55 -9.7 -6.1 -9.471875 -5.846484375 -9.25 -5.65 -9.1 -5.7125 -8.95 -5.75 -8.6 -5.8 -8.3 -5.85 -8.05 -5.9 -7.8 -5.95 -5.0998046875 -5.4935546875 -3.25 -3.6 -1.940234375 -2.5669921875 -0.85 -1.3 0.65 0.35 0.8 2.55 1 5.7 0.05 8.75 1.05 9.460546875 2.1 10.1 3.6216796875 10.73046875 5.15 11.35 7.01015625 12.13125 8.95 12.4 10.394140625 12.1857421875 11.65 11.1 11.85 10.95 11.8 10.7 11.05 7.3 7.2 6.5 4.85 6 6.25 3.5 8.99765625 -1.35390625 7.2 -4.3 Z"/>

<path fill="#000000" stroke="none" d="
M 2.3 -8.7
Q 5.46015625 -7.2443359375 7.2 -4.3 8.99765625 -1.35390625 6.25 3.5 4.85 6 7.2 6.5 11.05 7.3 11.8 10.7 11.85 10.95 11.65 11.1 10.394140625 12.1857421875 8.95 12.4 7.01015625 12.13125 5.15 11.35 3.6216796875 10.73046875 2.1 10.1 1.05 9.460546875 0.05 8.75 1 5.7 0.8 2.55 0.65 0.35 -0.85 -1.3 -1.940234375 -2.5669921875 -3.25 -3.6 -5.0998046875 -5.4935546875 -7.8 -5.95 -8.05 -5.9 -8.3 -5.85 -8.6 -5.8 -8.95 -5.75 -9.1 -5.7125 -9.25 -5.65 -9.425 -5.51875 -9.55 -5.3 -9.7 -5.1 -9.65 -4.8 -6.7 -3.4 -4.5 -0.7 -2.55 1.75 -2.65 4.9 -2.7185546875 6.7158203125 -2.65 8.4
L -2.65 8.4
Q -2.85 8.5 -2.95 8.65 -3.1 8.8 -3.2 8.95 -2.86328125 9.5015625 -2.5 10 -2.41328125 10.08046875 -2.35 10.15 -0.052734375 13.057421875 3.95 14.35 7.55 15.4720703125 9.35 15.9 11.1357421875 15.713671875 12.3 15.05 13.4599609375 14.4421875 14.45 11.15 15.476171875 7.84375 12.5 6 9.5828125 4.1681640625 9.35 3.9 9.712890625 3.4224609375 9.95 2.8 10.75 0.85 10.75 -1.3 10.75 -8.55 3.65 -11.5 0.25 -12.95 -3.35 -13.4 -4.4 -13.4 -5.4 -13.45 -6.45 -13.45 -7.5 -13.3 -8.55 -13.15 -9.4 -12.65 -9.85 -12.4 -10 -11.95 -9.9669921875 -11.92421875 -9.95 -11.9 -9.8228515625 -11.8220703125 -9.75 -11.75 -9.7380859375 -11.6640625 -9.7 -11.55 -9.35625 -11.4173828125 -8.95 -11.3 -7.6255859375 -10.9005859375 -5.65 -10.65 -5.0435546875 -10.5462890625 -4.4 -10.5 -0.86796875 -10.1013671875 2.3 -8.7 Z"/>
</g>

<g id="Puppy_Scared_Run__assets___Duplicate_Items_Folder_dog_tail_0_Layer0_0_FILL">
<path fill="#000000" stroke="none" d="
M 16.2 -2.4
Q 16.2 -3.6 11.15 -3.9 6.25 -4.2 0.05 -3.5 -16.15 -1.6 -16.15 3.35 -16.15 4.45 -15.8 3.85 -7.75 -0.15 5.6 -0.6 12.75 -0.85 13.25 -0.9 16.2 -1.2 16.2 -2.4 Z"/>
</g>

<g id="Puppy_Scared_Run__assets___Duplicate_Items_Folder_dog_body1_0_Layer0_0_FILL">
<path fill="#000000" stroke="none" d="
M 17.3 -15.55
Q 13.9 -35.25 5.2 -24.9 -0.7 -17.85 -9.15 -4 -19.55 13.1 -19.55 19.4 -19.55 21.9 -17.35 24.15 -13.15 28.45 -2.55 28.45 14.55 28.45 18.4 21.3 19.7 18.95 19.55 15.55 19.15 12.2 19.15 11.2 19.15 -5 17.3 -15.55
M 6.4 -21.2
Q 10.95 -32.35 13.55 -13.5 15.35 -0.6 15.35 11.5 15.35 12.05 15.7 14.35 15.85 16.75 14.8 18.5 11.6 23.9 -2.55 23.9 -8.75 23.9 -12.45 21.65 -15.25 19.95 -15.25 18.35 -15.25 13.95 -4.95 -3.35 3.55 -17.6 6.4 -21.2 Z"/>

<path fill="#FFCC66" stroke="none" d="
M 13.55 -13.5
Q 10.95 -32.35 6.4 -21.2 3.55 -17.6 -4.95 -3.35 -15.25 13.95 -15.25 18.35 -15.25 19.95 -12.45 21.65 -8.75 23.9 -2.55 23.9 11.6 23.9 14.8 18.5 15.85 16.75 15.7 14.35 15.35 12.05 15.35 11.5 15.35 -0.6 13.55 -13.5 Z"/>
</g>

<g id="Puppy_Scared_Run__assets___Duplicate_Items_Folder_dog_ear2_0_Layer0_0_FILL">
<path fill="#FFCC66" stroke="none" d="
M 9.15 -3.6
Q 6.2 -8.75 3.4 -9.2 0.55 -9.7 -2.1 -9.8 -4.75 -9.9 -7.55 -7.85 -10.35 -5.85 -10.65 -5.6 -12.05 -4.55 -14.1 -2.75 -14.1 -2.6 -14 -1.4 -13.45 -0.2 -11.6 -0.2 -11.35 -0.2 -11.1 -0.2 -10.75 -1.8 -9.35 -2.7 -7.95 -3.6 -6.15 -4.8 -4.35 -6 -1.7 -6.2 0.95 -6.45 0.95 -4.7 0.95 -3.95 0.3 -3.7 -0.35 -3.4 -0.35 -2.75 -0.35 -2.7 0.4 -0.75 1.1 1.15 3.5 4.85 5.9 8.55 8.1 8.55 10.25 8.55 11.25 6.55 12.05 4.95 12.05 4.2 12.05 1.5 9.15 -3.6 Z"/>

<path fill="#000000" stroke="none" d="
M 13.7 -2.5
Q 11.25 -7.6 7.85 -9.95 4.4 -12.3 -2.05 -12.6 -8.55 -12.9 -15.75 -4.05
L -15.75 -2.25 -14.65 -2.35
Q -14.35 -2.55 -14.1 -2.75 -12.05 -4.55 -10.65 -5.6 -10.35 -5.85 -7.55 -7.85 -4.75 -9.9 -2.1 -9.8 0.55 -9.7 3.4 -9.2 6.2 -8.75 9.15 -3.6 12.05 1.5 12.05 4.2 12.05 4.95 11.25 6.55 10.25 8.55 8.1 8.55 5.9 8.55 3.5 4.85 1.1 1.15 0.4 -0.75 -0.35 -2.7 -0.35 -2.75 -0.35 -3.4 0.3 -3.7 0.95 -3.95 0.95 -4.7 0.95 -6.45 -1.7 -6.2 -4.35 -6 -6.15 -4.8 -7.95 -3.6 -9.35 -2.7 -10.75 -1.8 -11.1 -0.2 -11.2 0 -11.2 0.3
L -10.05 1.65
Q -9.45 1.6 -9 1.5 -7.6 1.2 -6.95 0.6 -5 -1.15 -4.6 -1.4
L -4.3 -1.1
Q -4.05 0.15 -3.4 1.5 -2.15 4.15 0.45 7.25 4.9 12.6 8.6 12.6 12.9 12.6 14.7 9.25 15.8 7.15 15.8 4.35 15.8 1.8 13.7 -2.5 Z"/>
</g>

<g id="Puppy_Scared_Run__assets___Duplicate_Items_Folder_dog_head_0_Layer0_0_FILL">
<path fill="#000000" stroke="none" d="
M 12.7 -8.05
Q 12.55 -8.15 12.45 -8.2 12.25 -8.9 11.9 -9.5 10.95 -11.1 9.1 -11.75 8.25 -12.95 7.05 -14.25 3.1 -18.55 2.6 -19.35 0.85 -22.7 -2.75 -24.15 -3.3 -24.4 -3.85 -24.5 -4.3 -24.7 -5 -24.7 -5.85 -24.8 -6.55 -24.6 -6.65 -24.6 -6.75 -24.55 -10.25 -24.85 -13.4 -22.9 -15.6 -21.6 -16.35 -20.25 -19.85 -17.75 -20.35 -14.95 -21.2 -9.8 -21 0.9 -21 1 -20 9.55 -18.9 16.05 -17.3 17.6 -16.75 18.9 -15.65 20.35 -12.3 24.75 -5.45 24.75 10.65 24.75 17.2 19.15 21.1 15.75 21.1 10.85 21.1 8.85 20.1 5.65 18.8 2.05 18.3 0.3 16.2 -5.8 12.7 -8.05
M 2.9 -14.8
Q 4.2 -13.4 5.25 -12.25 -1.1 -12 -4.6 -6.4 -7.1 -2.4 -7.1 0.9 -7.1 1 -6.9 4.25 -6.15 7.45 -3 7.45 7.95 7.45 11.35 1.2 12.05 -0.05 12.4 -1.95
L 13.35 -0.65
Q 17.4 5.95 17.4 11.05 17.4 13.95 13.85 16.55 7.95 20.95 -5.45 20.95 -11 20.95 -13.1 18 -13.9 16.15 -14.65 14.95 -15.05 13.6 -15.45 12.25 -16.5 8.45 -16.55 6.25 -16.55 4.8 -17.15 1.25 -17.75 -2.35 -17.75 -3.75 -17.85 -6.2 -17.85 -8.3 -17.8 -12.35 -17.1 -14.15 -15.8 -17.3 -14 -19.3 -12.462890625 -20.5287109375 -10.8 -21.25 -9.1404296875 -21.966015625 -8.65 -21.9 -8.1033203125 -21.7947265625 -7.8 -21.8 -3.4 -21.8 2.9 -14.8
M -6.95 -9.85
Q -6.5 -10.75 -6.5 -11.8 -6.5 -14.25 -9 -15.05 -11.4984375 -15.8494140625 -11.5 -12.7 -11.4978515625 -12.9330078125 -11.25 -10.95 -10.5 -8.75 -8.45 -8.75 -7.5 -8.75 -6.95 -9.85
M -5.95 -16.25
Q -5.95 -15.3 -5.2 -14.25 -4.05 -12.75 -1.95 -12.75 -1.25 -12.75 -0.9 -13 -0.7 -13.1 -0.55 -13.25
L -0.35 -14.6
Q -0.85 -17.55 -3.4 -18.1 -5.95 -18.6 -5.95 -16.25 Z"/>

<path fill="#FFCC66" stroke="none" d="
M 5.25 -12.25
Q 4.2 -13.4 2.9 -14.8 -3.4 -21.8 -7.8 -21.8 -8.1033203125 -21.7947265625 -8.65 -21.9 -9.1404296875 -21.966015625 -10.8 -21.25 -12.462890625 -20.5287109375 -14 -19.3 -15.8 -17.3 -17.1 -14.15 -17.8 -12.35 -17.85 -8.3 -17.85 -6.2 -17.75 -3.75 -17.75 -2.35 -17.15 1.25 -16.55 4.8 -16.55 6.25 -16.5 8.45 -15.45 12.25 -15.05 13.6 -14.65 14.95 -13.9 16.15 -13.1 18 -11 20.95 -5.45 20.95 7.95 20.95 13.85 16.55 17.4 13.95 17.4 11.05 17.4 5.95 13.35 -0.65
L 12.4 -1.95
Q 12.05 -0.05 11.35 1.2 7.95 7.45 -3 7.45 -6.15 7.45 -6.9 4.25 -7.1 1 -7.1 0.9 -7.1 -2.4 -4.6 -6.4 -1.1 -12 5.25 -12.25
M -5.2 -14.25
Q -5.95 -15.3 -5.95 -16.25 -5.95 -18.6 -3.4 -18.1 -0.85 -17.55 -0.35 -14.6
L -0.55 -13.25
Q -0.7 -13.1 -0.9 -13 -1.25 -12.75 -1.95 -12.75 -4.05 -12.75 -5.2 -14.25
M -6.5 -11.8
Q -6.5 -10.75 -6.95 -9.85 -7.5 -8.75 -8.45 -8.75 -10.5 -8.75 -11.25 -10.95 -11.4978515625 -12.9330078125 -11.5 -12.7 -11.4984375 -15.8494140625 -9 -15.05 -6.5 -14.25 -6.5 -11.8 Z"/>
</g>

<g id="Puppy_Scared_Run__assets___Duplicate_Items_Folder_dog_ear1_0_Layer0_0_FILL">
<path fill="#000000" stroke="none" d="
M 12 -12.7
L 12.9 -12.85
Q 12.95 -12.9 13.15 -13.15
L 13.15 -13.2
Q 13.2 -13.25 13.2 -13.95 13.2 -14.1 13.15 -14.2 12.9 -14.85 11.75 -15.7 11.65 -15.75 11.6 -15.8 9.8 -17.05 7.45 -17.7 1 -19.55 -3.8 -15.55 -5.65 -14.05 -7.1 -11.15 -8.4 -8.6 -8.75 -6.55 -9.15 -4.5 -11.4 2.8 -13.2 8.45 -13.2 11.6 -13.2 13.75 -12.1 15.2 -9.65 18.35 -2.75 18.35 5.3 18.35 6.75 9.2 7.25 6.05 7.15 0.4 7.05 -8 7.05 -8.8 7.3 -8.75 8.3 -8.05 9.2 -7.4 10.1 -7.4 11.2 -7.4 11.35 -7.7 11.6 -7.6 11.6 -8.7 11.6 -8.85 11.5 -9.05 11.05 -9.75 9.5 -10.85 9.1 -11.1 8.75 -11.35 6.6 -12.6 4.4 -12.6 2.25 -12.6 2.25 -10.9 2.25 -10.6 3.15 -8.6 4 -6.6 4 -5.5 4 3.5 3.35 6.35 1.5 14.45 -5.3 14.45 -7.5 14.45 -8.65 13.15 -9.5 12.2 -9.7 10.45 -9.9 8.7 -7.2 -2.25 -4.5 -13.2 0.2 -15.4
L 4.35 -15.4
Q 7 -14.6 8.7 -13.85 9.1 -13.7 9.5 -13.5 10.7 -13.05 12 -12.7 Z"/>

<path fill="#FFCC66" stroke="none" d="
M 12.9 -12.85
L 12 -12.7
Q 10.7 -13.05 9.5 -13.5 9.1 -13.7 8.7 -13.85 7 -14.6 4.35 -15.4
L 0.2 -15.4
Q -4.5 -13.2 -7.2 -2.25 -9.9 8.7 -9.7 10.45 -9.5 12.2 -8.65 13.15 -7.5 14.45 -5.3 14.45 1.5 14.45 3.35 6.35 4 3.5 4 -5.5 4 -6.6 3.15 -8.6 2.25 -10.6 2.25 -10.9 2.25 -12.6 4.4 -12.6 6.6 -12.6 8.75 -11.35 9.1 -11.1 9.5 -10.85 11.05 -9.75 11.5 -9.05 12.25 -9.6 12.7 -11.05 13 -12.05 13.15 -13.15 12.95 -12.9 12.9 -12.85 Z"/>
</g>
</defs>

<g transform="matrix( 1, 0, 0, 1, 675.2,292.3) ">
<g transform="matrix( -4.18402099609375, 1.8818359375, 1.4857025146484375, 4.362548828125, 383.95,296.15) ">
<g transform="matrix( 1, 0, 0, 1, 0,0) ">
<use xlink:href="#Puppy_Scared_Run__assets___Duplicate_Items_Folder_dog_legrun_2_Layer0_0_FILL"/>
</g>
</g>

<g transform="matrix( -4.5878143310546875, 0, -0.434295654296875, 4.588134765625, 253.2,311.3) ">
<g transform="matrix( 1, 0, 0, 1, 0,0) ">
<use xlink:href="#Puppy_Scared_Run__assets___Duplicate_Items_Folder_dog_legrun_5_Layer0_0_FILL"/>
</g>
</g>

<g transform="matrix( -4.18402099609375, 1.8818359375, 1.8817138671875, 4.1843109130859375, 503,164.7) ">
<g transform="matrix( 1, 0, 0, 1, 0,0) ">
<use xlink:href="#Puppy_Scared_Run__assets___Duplicate_Items_Folder_dog_tail_0_Layer0_0_FILL"/>
</g>
</g>

<g transform="matrix( -1.64447021484375, 4.2861785888671875, 4.4106903076171875, 1.30377197265625, 328.2,234) ">
<g transform="matrix( 1, 0, 0, 1, 0,0) ">
<use xlink:href="#Puppy_Scared_Run__assets___Duplicate_Items_Folder_dog_body1_0_Layer0_0_FILL"/>
</g>
</g>

<g transform="matrix( -4.5878143310546875, 0, -0.434295654296875, 4.588134765625, 275.9,335.85) ">
<g transform="matrix( 1, 0, 0, 1, 0,0) ">
<use xlink:href="#Puppy_Scared_Run__assets___Duplicate_Items_Folder_dog_legrun_2_Layer0_0_FILL"/>
</g>
</g>

<g transform="matrix( -4.28955078125, 1.92938232421875, 1.523193359375, 4.47259521484375, 381.65,315.65) ">
<g transform="matrix( 1, 0, 0, 1, 0,0) ">
<use xlink:href="#Puppy_Scared_Run__assets___Duplicate_Items_Folder_dog_legrun_5_Layer0_0_FILL"/>
</g>
</g>

<g transform="matrix( 4.257080078125, -1.56427001953125, 1.589935302734375, 4.35888671875, 256.85,180.3) ">
<g transform="matrix( 1, 0, 0, 1, 0,0) ">
<use xlink:href="#Puppy_Scared_Run__assets___Duplicate_Items_Folder_dog_ear2_0_Layer0_0_FILL"/>
</g>
</g>

<g transform="matrix( 4.5425872802734375, -0.47967529296875, 0.5806732177734375, 4.5718841552734375, 229.8,272.55) ">
<g transform="matrix( 1, 0, 0, 1, 0,0) ">
<use xlink:href="#Puppy_Scared_Run__assets___Duplicate_Items_Folder_dog_head_0_Layer0_0_FILL"/>
</g>
</g>

<g transform="matrix( 4.5821990966796875, 0.689727783203125, -0.625762939453125, 4.4990692138671875, 91,250.05) ">
<g transform="matrix( 1, 0, 0, 1, 0,0) ">
<use xlink:href="#Puppy_Scared_Run__assets___Duplicate_Items_Folder_dog_ear1_0_Layer0_0_FILL"/>
</g>
</g>
</g>
</svg>
